<svg width="36" height="36" viewBox="0 0 36 36" fill="none" xmlns="http://www.w3.org/2000/svg">
<path d="M29.3238 16.4953C28.6413 14.9592 27.6491 13.5804 26.4094 12.4453L25.3863 11.5066C25.3516 11.4756 25.3098 11.4536 25.2646 11.4425C25.2193 11.4315 25.1721 11.4317 25.127 11.4431C25.0819 11.4546 25.0402 11.477 25.0058 11.5082C24.9713 11.5395 24.945 11.5788 24.9293 11.6226L24.4723 12.934C24.1875 13.7566 23.6637 14.5968 22.9219 15.423C22.8727 15.4758 22.8164 15.4898 22.7777 15.4933C22.7391 15.4968 22.6793 15.4898 22.6266 15.4406C22.5773 15.3984 22.5527 15.3351 22.5562 15.2718C22.6863 13.1554 22.0535 10.7683 20.6684 8.17028C19.5223 6.01169 17.9297 4.3277 15.9398 3.15349L14.4879 2.29919C14.298 2.18669 14.0555 2.33435 14.066 2.55583L14.1434 4.24333C14.1961 5.39645 14.0625 6.41599 13.7461 7.26325C13.3594 8.30036 12.8039 9.26364 12.0938 10.1285C11.5995 10.7295 11.0394 11.2732 10.4238 11.7492C8.94131 12.8888 7.73583 14.3491 6.89766 16.0207C6.06155 17.7068 5.62602 19.5632 5.625 21.4453C5.625 23.1047 5.95195 24.7113 6.59883 26.2265C7.22344 27.6854 8.12482 29.0094 9.25313 30.1254C10.3922 31.2504 11.7141 32.1363 13.1871 32.7515C14.7129 33.3914 16.3301 33.7148 18 33.7148C19.6699 33.7148 21.2871 33.3914 22.8129 32.755C24.2823 32.1434 25.6185 31.2514 26.7469 30.1289C27.8859 29.0039 28.7789 27.689 29.4012 26.23C30.0471 24.719 30.3784 23.0921 30.375 21.4488C30.375 19.7332 30.0234 18.0668 29.3238 16.4953V16.4953ZM25.0664 28.4238C23.1785 30.2941 20.6719 31.3207 18 31.3207C15.3281 31.3207 12.8215 30.2941 10.9336 28.4238C9.05273 26.557 8.01562 24.082 8.01562 21.4488C8.01562 19.9195 8.36016 18.4535 9.03867 17.0894C9.69961 15.757 10.684 14.5652 11.8793 13.6476C12.6416 13.0647 13.333 12.3945 13.9395 11.6508C14.8184 10.5785 15.5074 9.38317 15.9855 8.09997C16.1817 7.57065 16.3242 7.02298 16.4109 6.4652C17.2582 7.24567 17.9684 8.18786 18.5625 9.29177C19.7367 11.4925 20.2781 13.4508 20.1727 15.1172C20.1475 15.5096 20.2116 15.9027 20.3601 16.2668C20.5087 16.631 20.7379 16.9567 21.0305 17.2195C21.284 17.4485 21.5805 17.6249 21.9028 17.7384C22.2251 17.8518 22.5667 17.9001 22.9078 17.8804C23.6004 17.8453 24.2367 17.5394 24.7008 17.0226C25.1684 16.4988 25.5727 15.9644 25.9102 15.4195C26.4023 16.0488 26.8137 16.7343 27.1406 17.4726C27.6996 18.7312 27.9844 20.0707 27.9844 21.4488C27.9844 24.082 26.9473 26.5605 25.0664 28.4238Z" fill="#14141D"/>
</svg>
