<svg width="36" height="36" viewBox="0 0 36 36" fill="none" xmlns="http://www.w3.org/2000/svg">
<path d="M4 7H15.3372C15.287 7.28692 15.2239 7.62295 15.1457 8.00052C14.8718 9.32438 14.4151 11.1512 13.6852 13.1583C12.2164 17.1976 9.688 21.8395 5.4453 24.6679L4.43036 25.3446L5.2909 26.2051L5.29136 26.2056L5.29199 26.2062L5.29241 26.2066L5.29289 26.2071L5.2931 26.2073L5.30955 26.2244C5.3257 26.2414 5.35193 26.2694 5.3868 26.308C5.4566 26.3853 5.56074 26.5048 5.68788 26.6638C5.94265 26.9822 6.28682 27.455 6.63176 28.0586C7.20687 29.0651 7.77077 30.4113 7.94514 32H4V7ZM20.6628 7H32V32H28.0549C28.2292 30.4113 28.7931 29.0651 29.3682 28.0586C29.7132 27.455 30.0573 26.9822 30.3121 26.6638C30.4393 26.5048 30.5434 26.3853 30.6132 26.308C30.6481 26.2694 30.6743 26.2414 30.6904 26.2244L30.7069 26.2073L30.7071 26.2071L30.7076 26.2066L30.708 26.2062L30.7086 26.2056L30.7091 26.2051L31.5696 25.3446L30.5547 24.6679C26.312 21.8395 23.7836 17.1976 22.3148 13.1583C21.5849 11.1512 21.1282 9.32438 20.8543 8.00052C20.7761 7.62295 20.713 7.28692 20.6628 7ZM33.5 3.5H2.5V2.5H33.5V3.5Z" stroke="#14141D" stroke-width="2"/>
</svg>
