<svg width="36" height="36" viewBox="0 0 36 36" fill="none" xmlns="http://www.w3.org/2000/svg">
<g clip-path="url(#clip0_77_31)">
<path fill-rule="evenodd" clip-rule="evenodd" d="M11.34 0.68175C11.4268 0.47925 11.5711 0.306697 11.7551 0.185501C11.9391 0.0643062 12.1547 -0.000195507 12.375 4.45143e-07H23.625C24.075 4.45143e-07 24.48 0.27 24.66 0.68175L31.41 16.4317C31.4758 16.5858 31.5064 16.7527 31.4995 16.9201C31.4926 17.0875 31.4484 17.2512 31.3701 17.3994C31.2919 17.5475 31.1815 17.6763 31.0471 17.7763C30.9127 17.8763 30.7576 17.9451 30.5932 17.9775H30.5887C30.2512 18.045 29.9137 18.1035 29.5762 18.1598C26.1197 18.7266 22.627 19.0462 19.125 19.116V30.375C19.125 30.6734 19.0065 30.9595 18.7955 31.1705C18.5845 31.3815 18.2984 31.5 18 31.5C17.7016 31.5 17.4155 31.3815 17.2045 31.1705C16.9935 30.9595 16.875 30.6734 16.875 30.375V19.1137C13.3729 19.0438 9.88033 18.7242 6.42374 18.1575C6.08624 18.1012 5.74874 18.045 5.41124 17.9775H5.40449C5.24002 17.9449 5.08493 17.8759 4.95055 17.7756C4.81618 17.6753 4.70592 17.5462 4.62785 17.3979C4.54977 17.2495 4.50585 17.0855 4.4993 16.918C4.49275 16.7504 4.52374 16.5835 4.58999 16.4295L11.34 0.6795V0.68175ZM7.22249 16.011C10.7875 16.575 14.3906 16.8639 18 16.875C21.6101 16.864 25.214 16.5751 28.7797 16.011L22.8847 2.25H13.1175L7.22024 16.011H7.22249Z" fill="#14141D"/>
<path d="M14.6093 28.2915C14.658 28.5857 14.588 28.8872 14.4146 29.1298C14.2412 29.3724 13.9786 29.5362 13.6845 29.5853C12.0825 29.8508 10.8045 30.249 9.96075 30.6945C9.6508 30.8435 9.36911 31.0453 9.12825 31.2908C9.0809 31.3408 9.04145 31.3977 9.01125 31.4595L9.009 31.4685L9 31.491V31.5L9.0045 31.518C9.01335 31.5442 9.02545 31.5691 9.0405 31.5923C9.12941 31.7224 9.23972 31.8365 9.36675 31.9298C9.738 32.2223 10.3455 32.5373 11.196 32.8185C12.8857 33.381 15.291 33.75 18 33.75C20.709 33.75 23.1143 33.3833 24.804 32.8185C25.6545 32.535 26.262 32.2223 26.6332 31.9298C26.7611 31.8367 26.8722 31.7226 26.9617 31.5923C26.976 31.569 26.9873 31.5441 26.9955 31.518L27 31.5V31.491C26.9696 31.4164 26.9262 31.3479 26.8717 31.2885C26.6307 31.0438 26.3491 30.8428 26.0392 30.6945C25.1932 30.249 23.9175 29.8508 22.3155 29.5853C22.1663 29.5651 22.0226 29.5151 21.8931 29.4383C21.7635 29.3615 21.6507 29.2596 21.5613 29.1384C21.4719 29.0172 21.4077 28.8793 21.3726 28.7329C21.3375 28.5864 21.3321 28.4344 21.3568 28.2859C21.3815 28.1373 21.4358 27.9952 21.5164 27.8681C21.5971 27.7409 21.7024 27.6312 21.8262 27.5455C21.95 27.4598 22.0898 27.3998 22.2372 27.3691C22.3847 27.3384 22.5368 27.3376 22.6845 27.3668C24.417 27.6525 25.9515 28.1048 27.0877 28.7033C28.125 29.25 29.25 30.15 29.25 31.5C29.25 32.4585 28.665 33.192 28.026 33.6983C27.3735 34.2113 26.496 34.6275 25.515 34.9538C23.5395 35.613 20.8823 36 18 36C15.1177 36 12.4605 35.613 10.485 34.9538C9.504 34.6275 8.6265 34.2113 7.974 33.6983C7.335 33.192 6.75 32.4585 6.75 31.5C6.75 30.1523 7.875 29.25 8.91225 28.7033C10.0485 28.1048 11.583 27.6525 13.3155 27.3668C13.6097 27.318 13.9112 27.388 14.1538 27.5614C14.3964 27.7348 14.5602 27.9974 14.6093 28.2915Z" fill="#14141D"/>
</g>
<defs>
<clipPath id="clip0_77_31">
<rect width="36" height="36" fill="white"/>
</clipPath>
</defs>
</svg>
