<svg width="96" height="96" viewBox="0 0 96 96" fill="none" xmlns="http://www.w3.org/2000/svg">
<g clip-path="url(#clip0_49_52)">
<path d="M33.12 2.154C33.3028 1.53197 33.6823 0.985912 34.2015 0.5976C34.7206 0.209287 35.3517 -0.000379119 36 5.1463e-07H60C60.4751 0.000361162 60.9433 0.113556 61.3661 0.330266C61.7889 0.546977 62.1542 0.861006 62.4319 1.2465C62.7096 1.632 62.8918 2.07793 62.9634 2.5476C63.0351 3.01727 62.9941 3.49724 62.844 3.948L52.164 36H75C75.5618 35.9996 76.1124 36.157 76.5892 36.4542C77.0659 36.7514 77.4496 37.1765 77.6966 37.6811C77.9436 38.1857 78.0439 38.7495 77.9862 39.3084C77.9285 39.8672 77.715 40.3986 77.37 40.842L35.37 94.842C34.9397 95.3979 34.328 95.785 33.6414 95.9358C32.9549 96.0867 32.2371 95.9916 31.6135 95.6673C30.9899 95.343 30.4999 94.81 30.2292 94.1613C29.9584 93.5126 29.924 92.7894 30.132 92.118L40.938 57H21C20.5336 57.0003 20.0735 56.8918 19.6564 56.6832C19.2392 56.4746 18.8765 56.1715 18.5969 55.7982C18.3173 55.4249 18.1287 54.9915 18.0459 54.5325C17.9631 54.0735 17.9885 53.6015 18.12 53.154L33.12 2.154ZM38.244 6L25.008 51H45C45.4695 50.9999 45.9324 51.11 46.3516 51.3214C46.7708 51.5329 47.1345 51.8397 47.4135 52.2174C47.6925 52.595 47.8789 53.0328 47.9579 53.4956C48.0368 53.9584 48.006 54.4333 47.868 54.882L40.68 78.24L68.868 42H48C47.5249 41.9996 47.0567 41.8864 46.6339 41.6697C46.2111 41.453 45.8458 41.139 45.5681 40.7535C45.2904 40.368 45.1082 39.9221 45.0366 39.4524C44.9649 38.9827 45.0059 38.5028 45.156 38.052L55.836 6H38.244Z" fill="#F8F8F8"/>
</g>
<defs>
<clipPath id="clip0_49_52">
<rect width="96" height="96" fill="white"/>
</clipPath>
</defs>
</svg>
