<svg width="96" height="96" viewBox="0 0 96 96" fill="none" xmlns="http://www.w3.org/2000/svg">
<path d="M80.2478 36C80.252 30.5499 78.875 25.1875 76.2453 20.4138C73.6156 15.6401 69.8189 11.6107 65.2099 8.70187C60.6009 5.79308 55.3299 4.09979 49.8891 3.78016C44.4484 3.46052 39.0154 4.52495 34.0975 6.87405C29.1796 9.22315 24.9372 12.7803 21.7666 17.2133C18.596 21.6462 16.6006 26.8104 15.9667 32.2236C15.3327 37.6367 16.081 43.1222 18.1416 48.1678C20.2022 53.2134 23.5079 57.6545 27.75 61.0763V90C27.75 90.3836 27.8481 90.7607 28.0349 91.0957C28.2217 91.4307 28.491 91.7124 28.8173 91.914C29.1436 92.1156 29.516 92.2305 29.8991 92.2477C30.2823 92.2649 30.6635 92.1838 31.0065 92.0123L47.997 83.5155L64.9939 92.0126C65.3369 92.1841 65.7181 92.2651 66.1013 92.2478C66.4844 92.2306 66.8568 92.1157 67.183 91.914C67.5092 91.7124 67.7785 91.4307 67.9653 91.0957C68.152 90.7607 68.25 90.3835 68.25 90V61.0729C71.9957 58.0552 75.0176 54.2367 77.0938 49.8978C79.1701 45.5589 80.2478 40.81 80.2478 36V36ZM20.2478 36C20.2478 30.5116 21.8753 25.1464 24.9245 20.5829C27.9737 16.0195 32.3076 12.4627 37.3783 10.3623C42.4489 8.26202 48.0285 7.71247 53.4115 8.78321C58.7945 9.85395 63.7391 12.4969 67.62 16.3778C71.5009 20.2587 74.1438 25.2033 75.2145 30.5862C76.2853 35.9692 75.7357 41.5488 73.6354 46.6195C71.5351 51.6901 67.9783 56.0241 63.4148 59.0733C58.8514 62.1225 53.4862 63.75 47.9978 63.75C40.6406 63.7417 33.5871 60.8153 28.3847 55.613C23.1824 50.4107 20.2561 43.3572 20.2478 36V36ZM63.75 86.3595L49.0031 78.9874C48.6907 78.8311 48.3463 78.7498 47.997 78.7498C47.6477 78.7498 47.3033 78.8311 46.9909 78.9874L32.25 86.3595V64.1288C37.0595 66.8313 42.4836 68.2507 48.0003 68.2502C53.5171 68.2498 58.941 66.8295 63.75 64.1261V86.3595ZM47.9978 56.25C52.0028 56.25 55.918 55.0624 59.2481 52.8373C62.5781 50.6122 65.1736 47.4495 66.7063 43.7493C68.239 40.0491 68.64 35.9775 67.8587 32.0494C67.0773 28.1213 65.1487 24.5131 62.3167 21.6811C59.4847 18.8491 55.8764 16.9205 51.9483 16.1391C48.0202 15.3578 43.9486 15.7588 40.2484 17.2914C36.5482 18.8241 33.3856 21.4196 31.1605 24.7497C28.9354 28.0798 27.7478 31.9949 27.7478 36C27.7539 41.3687 29.8894 46.5158 33.6856 50.3121C37.4819 54.1084 42.629 56.2439 47.9978 56.25V56.25ZM47.9978 20.25C51.1128 20.25 54.1579 21.1737 56.748 22.9044C59.3381 24.635 61.3568 27.0948 62.5489 29.9727C63.7409 32.8507 64.0528 36.0175 63.4451 39.0727C62.8374 42.1279 61.3374 44.9343 59.1347 47.1369C56.932 49.3396 54.1256 50.8397 51.0704 51.4474C48.0152 52.0551 44.8484 51.7432 41.9705 50.5511C39.0926 49.359 36.6327 47.3403 34.9021 44.7502C33.1715 42.1602 32.2478 39.1151 32.2478 36C32.2524 31.8243 33.9133 27.8209 36.866 24.8682C39.8187 21.9155 43.822 20.2547 47.9978 20.25V20.25Z" fill="#F8F8F8"/>
</svg>
