<svg width="96" height="96" viewBox="0 0 96 96" fill="none" xmlns="http://www.w3.org/2000/svg">
<path d="M66.12 39.12C66.6499 38.5513 66.9384 37.7991 66.9247 37.0219C66.911 36.2447 66.5961 35.5032 66.0465 34.9535C65.4968 34.4039 64.7553 34.089 63.9781 34.0753C63.2009 34.0616 62.4487 34.3501 61.88 34.88L44 52.76L36.12 44.88C35.5513 44.3501 34.7991 44.0616 34.0219 44.0753C33.2447 44.089 32.5032 44.4039 31.9535 44.9535C31.4039 45.5032 31.089 46.2447 31.0753 47.0219C31.0616 47.7991 31.3501 48.5513 31.88 49.12L41.88 59.12C42.4425 59.6818 43.205 59.9974 44 59.9974C44.795 59.9974 45.5575 59.6818 46.12 59.12L66.12 39.12Z" fill="#F8F8F8"/>
<path fill-rule="evenodd" clip-rule="evenodd" d="M50.16 2.54801C48.756 2.09256 47.244 2.09256 45.84 2.54801L12.84 13.248C11.4337 13.7042 10.208 14.5939 9.33855 15.7896C8.46908 16.9853 8.00051 18.4256 8 19.904V40C8 64.76 23.08 82.82 45.604 91.32C47.148 91.9 48.852 91.9 50.396 91.32C72.916 82.816 88 64.76 88 40V19.904C88 16.868 86.04 14.184 83.16 13.248L50.16 2.54801ZM47.692 8.25201C47.8922 8.18719 48.1078 8.18719 48.308 8.25201L81.308 18.956C81.5085 19.0209 81.6834 19.1476 81.8077 19.3178C81.932 19.4881 81.9993 19.6932 82 19.904V40C82 61.844 68.88 77.932 48.28 85.704C48.0994 85.7715 47.9006 85.7715 47.72 85.704C27.12 77.932 14 61.84 14 40V19.904C14 19.472 14.276 19.092 14.692 18.956L47.692 8.25201Z" fill="#F8F8F8"/>
</svg>
